HIERARCHY
ROOT Hips
{
  OFFSET 5.80788e-005 67.184 3.4734
  CHANNELS 6 Xposition Yposition Zposition Zrotation Xrotation Yrotation
  JOINT Chest
  {
    OFFSET 0 8.7983 -4.7612
    CHANNELS 6 Xposition Yposition Zposition Zrotation Xrotation Yrotation
    JOINT Chest2
    {
      OFFSET 0 8.0291 0.4195
      CHANNELS 6 Xposition Yposition Zposition Zrotation Xrotation Yrotation
      JOINT Chest3
      {
        OFFSET 0 9.9351 -2.2114
        CHANNELS 6 Xposition Yposition Zposition Zrotation Xrotation Yrotation
        JOINT Neck
        {
          OFFSET 0 22.3885 -0.4656
          CHANNELS 6 Xposition Yposition Zposition Zrotation Xrotation Yrotation
          JOINT Head
          {
            OFFSET -0.0001 12.643 3.4389
            CHANNELS 6 Xposition Yposition Zposition Zrotation Xrotation Yrotation
            End Site
            {
              OFFSET 0.0001 17.6655 0.5274
            }
          }
        }
        JOINT LeftCollar
        {
          OFFSET 2.2603 21.606 7.4023
          CHANNELS 6 Xposition Yposition Zposition Zrotation Xrotation Yrotation
          JOINT LeftShoulder
          {
            OFFSET 13.5163 -1.1332 -5.0146
            CHANNELS 6 Xposition Yposition Zposition Zrotation Xrotation Yrotation
            JOINT LeftElbow
            {
              OFFSET -0.0995 -28.05 -0.2431
              CHANNELS 6 Xposition Yposition Zposition Zrotation Xrotation Yrotation
              JOINT LeftWrist
              {
                OFFSET 0.0679 -23.3996 -0.1402
                CHANNELS 6 Xposition Yposition Zposition Zrotation Xrotation Yrotation
                JOINT LeftFinger1
                {
                  OFFSET 0.7932 -9.069 2.5189
                  CHANNELS 6 Xposition Yposition Zposition Zrotation Xrotation Yrotation
                  JOINT LeftFinger11
                  {
                    OFFSET -0.8272 -3.3923 0.5977
                    CHANNELS 6 Xposition Yposition Zposition Zrotation Xrotation Yrotation
                    JOINT LeftFinger12
                    {
                      OFFSET -0.5649 -2.3158 0.4082
                      CHANNELS 6 Xposition Yposition Zposition Zrotation Xrotation Yrotation
                      End Site
                      {
                        OFFSET -0.4919 -1.6479 0.2673
                      }
                    }
                  }
                }
                JOINT LeftFinger2
                {
                  OFFSET 0.9159 -9.2044 0.2193
                  CHANNELS 6 Xposition Yposition Zposition Zrotation Xrotation Yrotation
                  JOINT LeftFinger21
                  {
                    OFFSET 0.0117 -4.1944 -0.0248
                    CHANNELS 6 Xposition Yposition Zposition Zrotation Xrotation Yrotation
                    JOINT LeftFinger22
                    {
                      OFFSET 0.0071 -2.3249 -0.0142
                      CHANNELS 6 Xposition Yposition Zposition Zrotation Xrotation Yrotation
                      End Site
                      {
                        OFFSET -0.1475 -2.0882 0.0028
                      }
                    }
                  }
                }
                JOINT LeftFinger3
                {
                  OFFSET 0.6113 -8.7231 -2.0637
                  CHANNELS 6 Xposition Yposition Zposition Zrotation Xrotation Yrotation
                  JOINT LeftFinger31
                  {
                    OFFSET -0.1927 -3.8059 -0.2383
                    CHANNELS 6 Xposition Yposition Zposition Zrotation Xrotation Yrotation
                    JOINT LeftFinger32
                    {
                      OFFSET -0.1091 -2.1688 -0.1362
                      CHANNELS 6 Xposition Yposition Zposition Zrotation Xrotation Yrotation
                      End Site
                      {
                        OFFSET -0.2358 -1.9176 -0.0906
                      }
                    }
                  }
                }
                JOINT LeftFinger4
                {
                  OFFSET -0.6151 -8.0947 -3.5641
                  CHANNELS 6 Xposition Yposition Zposition Zrotation Xrotation Yrotation
                  JOINT LeftFinger41
                  {
                    OFFSET -0.4882 -2.341 -0.6462
                    CHANNELS 6 Xposition Yposition Zposition Zrotation Xrotation Yrotation
                    JOINT LeftFinger42
                    {
                      OFFSET -0.3575 -1.7167 -0.4742
                      CHANNELS 6 Xposition Yposition Zposition Zrotation Xrotation Yrotation
                      End Site
                      {
                        OFFSET -0.4187 -1.5237 -0.3496
                      }
                    }
                  }
                }
                JOINT LeftFinger0
                {
                  OFFSET -1.42 -1.8761 1.4223
                  CHANNELS 6 Xposition Yposition Zposition Zrotation Xrotation Yrotation
                  JOINT LeftFinger01
                  {
                    OFFSET -1.1471 -3.4929 2.6334
                    CHANNELS 6 Xposition Yposition Zposition Zrotation Xrotation Yrotation
                    JOINT LeftFinger02
                    {
                      OFFSET -0.823 -2.3 1.6571
                      CHANNELS 6 Xposition Yposition Zposition Zrotation Xrotation Yrotation
                      End Site
                      {
                        OFFSET -0.5822 -1.6914 1.1582
                      }
                    }
                  }
                }
              }
            }
          }
        }
        JOINT RightCollar
        {
          OFFSET -2.2603 21.606 7.4023
          CHANNELS 6 Xposition Yposition Zposition Zrotation Xrotation Yrotation
          JOINT RightShoulder
          {
            OFFSET -13.5187 -1.1334 -5.0155
            CHANNELS 6 Xposition Yposition Zposition Zrotation Xrotation Yrotation
            JOINT RightElbow
            {
              OFFSET 0.0994 -28.0499 -0.2431
              CHANNELS 6 Xposition Yposition Zposition Zrotation Xrotation Yrotation
              JOINT RightWrist
              {
                OFFSET -0.0679 -23.3996 -0.1402
                CHANNELS 6 Xposition Yposition Zposition Zrotation Xrotation Yrotation
                JOINT RightFinger1
                {
                  OFFSET -0.7932 -9.0691 2.5189
                  CHANNELS 6 Xposition Yposition Zposition Zrotation Xrotation Yrotation
                  JOINT RightFinger11
                  {
                    OFFSET 0.8272 -3.3923 0.5977
                    CHANNELS 6 Xposition Yposition Zposition Zrotation Xrotation Yrotation
                    JOINT RightFinger12
                    {
                      OFFSET 0.565 -2.3158 0.4082
                      CHANNELS 6 Xposition Yposition Zposition Zrotation Xrotation Yrotation
                      End Site
                      {
                        OFFSET 0.4919 -1.6479 0.2673
                      }
                    }
                  }
                }
                JOINT RightFinger2
                {
                  OFFSET -0.916 -9.2044 0.2193
                  CHANNELS 6 Xposition Yposition Zposition Zrotation Xrotation Yrotation
                  JOINT RightFinger21
                  {
                    OFFSET -0.0117 -4.1944 -0.0248
                    CHANNELS 6 Xposition Yposition Zposition Zrotation Xrotation Yrotation
                    JOINT RightFinger22
                    {
                      OFFSET -0.0071 -2.3249 -0.0142
                      CHANNELS 6 Xposition Yposition Zposition Zrotation Xrotation Yrotation
                      End Site
                      {
                        OFFSET 0.1475 -2.0882 0.0028
                      }
                    }
                  }
                }
                JOINT RightFinger3
                {
                  OFFSET -0.6113 -8.7231 -2.0637
                  CHANNELS 6 Xposition Yposition Zposition Zrotation Xrotation Yrotation
                  JOINT RightFinger31
                  {
                    OFFSET 0.1927 -3.8059 -0.2383
                    CHANNELS 6 Xposition Yposition Zposition Zrotation Xrotation Yrotation
                    JOINT RightFinger32
                    {
                      OFFSET 0.1091 -2.1688 -0.1362
                      CHANNELS 6 Xposition Yposition Zposition Zrotation Xrotation Yrotation
                      End Site
                      {
                        OFFSET 0.2358 -1.9176 -0.0906
                      }
                    }
                  }
                }
                JOINT RightFinger4
                {
                  OFFSET 0.6151 -8.0947 -3.564
                  CHANNELS 6 Xposition Yposition Zposition Zrotation Xrotation Yrotation
                  JOINT RightFinger41
                  {
                    OFFSET 0.4882 -2.341 -0.6462
                    CHANNELS 6 Xposition Yposition Zposition Zrotation Xrotation Yrotation
                    JOINT RightFinger42
                    {
                      OFFSET 0.3574 -1.7166 -0.4742
                      CHANNELS 6 Xposition Yposition Zposition Zrotation Xrotation Yrotation
                      End Site
                      {
                        OFFSET 0.4187 -1.5237 -0.3496
                      }
                    }
                  }
                }
                JOINT RightFinger0
                {
                  OFFSET 1.4199 -1.8761 1.4221
                  CHANNELS 6 Xposition Yposition Zposition Zrotation Xrotation Yrotation
                  JOINT RightFinger01
                  {
                    OFFSET 1.1472 -3.4929 2.6336
                    CHANNELS 6 Xposition Yposition Zposition Zrotation Xrotation Yrotation
                    JOINT RightFinger02
                    {
                      OFFSET 0.8229 -2.3 1.6571
                      CHANNELS 6 Xposition Yposition Zposition Zrotation Xrotation Yrotation
                      End Site
                      {
                        OFFSET 0.5822 -1.6914 1.1582
                      }
                    }
                  }
                }
              }
            }
          }
        }
      }
    }
  }
  JOINT RightHip
  {
    OFFSET -9.412 3.9771 -0.7758
    CHANNELS 6 Xposition Yposition Zposition Zrotation Xrotation Yrotation
    JOINT RightKnee
    {
      OFFSET -0.7531 -40.938 0
      CHANNELS 6 Xposition Yposition Zposition Zrotation Xrotation Yrotation
      JOINT RightAnkle
      {
        OFFSET 0 -40.1986 0
        CHANNELS 6 Xposition Yposition Zposition Zrotation Xrotation Yrotation
        JOINT RightToe
        {
          OFFSET 0 -4.4182 9.239
          CHANNELS 6 Xposition Yposition Zposition Zrotation Xrotation Yrotation
          End Site
          {
            OFFSET 0 0 6.1981
          }
        }
      }
    }
  }
  JOINT LeftHip
  {
    OFFSET 9.4119 3.9773 -0.7758
    CHANNELS 6 Xposition Yposition Zposition Zrotation Xrotation Yrotation
    JOINT LeftKnee
    {
      OFFSET 0.7532 -40.9383 0
      CHANNELS 6 Xposition Yposition Zposition Zrotation Xrotation Yrotation
      JOINT LeftAnkle
      {
        OFFSET 0 -40.1986 0
        CHANNELS 6 Xposition Yposition Zposition Zrotation Xrotation Yrotation
        JOINT LeftToe
        {
          OFFSET 0 -4.4182 9.239
          CHANNELS 6 Xposition Yposition Zposition Zrotation Xrotation Yrotation
          End Site
          {
            OFFSET 0 0 6.1981
          }
        }
      }
    }
  }
}
MOTION
Frames:	4
Frame Time:	0.0333333
-9.73584 5.34988 8.65118 -90 2.19263e-008 -8.51119e-007 0 8.7983 -4.7612 2.39233 2.20869 -7.45501 0 8.0291 0.4195 5.05622 4.08605 -15.0102 4.44089e-016 9.9351 -2.2114 5.05625 4.08607 -15.0103 1.33227e-015 22.3885 -0.4656 24.3605 -1.82427 0.823313 -0.0001 12.643 3.4389 8.61508 3.37438 0.0453768 2.2603 21.606 7.4023 -5.5866 -11.2861 12.185 13.5163 -1.1332 -5.0146 20.9472 -34.7528 4.06859 -0.0995 -28.05 -0.2431 -15.9943 2.91044 1.3588 0.0679 -23.3996 -0.1402 0.00558707 -0.00226302 0.732148 0.7932 -9.069 2.5189 -3.18055e-015 3.18055e-015 3.18055e-015 -0.8272 -3.3923 0.5977 1.06943e-006 -3.08492e-006 9.54349e-007 -0.5649 -2.3158 0.4082 -7.06225e-031 -6.36111e-015 -6.36111e-015 0.9159 -9.2044 0.2193 -3.18055e-015 3.18055e-015 3.18055e-015 0.0117 -4.1944 -0.0248 -0.012827 0.00232605 8.77652e-005 0.0071 -2.3249 -0.0142 9.54166e-015 0 -6.36111e-015 0.6113 -8.7231 -2.0637 -3.18055e-015 3.18055e-015 3.18055e-015 -0.1927 -3.8059 -0.2383 -0.0160664 0.00299366 0.0008652 -0.1091 -2.1688 -0.1362 4.77083e-015 6.36111e-015 3.18055e-015 -0.6151 -8.0947 -3.5641 -3.18055e-015 3.18055e-015 3.18055e-015 -0.4882 -2.341 -0.6462 -0.0126231 0.00312675 0.00283883 -0.3575 -1.7167 -0.4742 1.59028e-015 -3.18055e-015 3.18055e-015 -1.42 -1.8761 1.4223 -3.18055e-015 3.18055e-015 3.18055e-015 -1.1471 -3.4929 2.6334 1.06943e-006 -3.08492e-006 9.54349e-007 -0.823 -2.3 1.6571 -7.06225e-031 -6.36111e-015 -6.36111e-015 -2.2603 21.606 7.4023 -92.8402 -71.6943 -135.879 -13.5187 -1.1334 -5.0155 -98.0433 24.901 -22.3172 0.0994 -28.0499 -0.2431 31.6732 5.45205 28.3692 -0.0679 -23.3996 -0.1402 -29.3548 14.6044 55.4991 -0.7932 -9.0691 2.5189 6.36111e-015 4.22417e-016 -2.98177e-016 0.8272 -3.3923 0.5977 8.40547e-006 -1.26472e-005 -5.99907e-006 0.565 -2.3158 0.4082 1.72418e-033 9.93923e-016 -9.93923e-017 -0.916 -9.2044 0.2193 6.36111e-015 4.22417e-016 -2.98177e-016 -0.0117 -4.1944 -0.0248 0.0129838 0.00231973 -8.75401e-005 -0.0071 -2.3249 -0.0142 -3.18055e-015 -3.70236e-015 -1.2921e-015 -0.6113 -8.7231 -2.0637 6.36111e-015 4.22417e-016 -2.98177e-016 0.1927 -3.8059 -0.2383 0.0163204 0.00303047 -0.000873448 0.1091 -2.1688 -0.1362 3.18055e-015 -3.72721e-015 -2.08724e-015 0.6151 -8.0947 -3.564 6.36111e-015 4.22417e-016 -2.98177e-016 0.4882 -2.341 -0.6462 0.0145968 0.00368797 -0.00326991 0.3574 -1.7166 -0.4742 -3.18055e-015 -1.2921e-015 1.39149e-015 1.4199 -1.8761 1.4221 6.36111e-015 4.22417e-016 -2.98177e-016 1.1472 -3.4929 2.6336 8.40547e-006 -1.26472e-005 -5.99907e-006 0.8229 -2.3 1.6571 1.72418e-033 9.93923e-016 -9.93923e-017 -9.412 3.9771 -0.7758 -5.91115 -13.7539 1.54855 -0.7531 -40.938 0 59.0423 24.2079 -87.0285 -1.77636e-015 -40.1986 0 12.7226 31.2543 16.1578 -3.55271e-015 -4.4182 9.239 -5.50768e-006 -8.10366e-007 -4.85502e-006 9.4119 3.9773 -0.7758 5.11959 14.6437 8.93938 0.7532 -40.9383 0 4.78941 71.9095 -7.15517 0 -40.1986 0 2.54307 1.52272 3.78928 4.44089e-016 -4.4182 9.239 3.11997e-006 5.21057e-007 -6.84431e-006 
-9.73684 5.34978 8.4816 -90 -3.28577e-007 2.67583e-006 8.88179e-016 8.7983 -4.7612 2.37871 2.33973 -7.39189 0 8.0291 0.4195 5.04462 4.35158 -14.8909 -8.88179e-016 9.9351 -2.2114 5.04461 4.35159 -14.8909 1.77636e-015 22.3885 -0.4656 24.3092 -1.82502 0.82164 -0.0001 12.643 3.4389 8.58656 3.41314 0.0423121 2.2603 21.606 7.4023 -5.13638 -11.735 12.1655 13.5163 -1.1332 -5.0146 20.73 -34.9317 3.94639 -0.0995 -28.05 -0.2431 -16.1559 2.93712 1.33294 0.0679 -23.3996 -0.1402 0.00562253 -0.00226938 0.735985 0.7932 -9.069 2.5189 -1.42469e-006 -1.13993e-006 4.16135e-006 -0.8272 -3.3923 0.5977 1.42469e-006 1.13993e-006 -4.16135e-006 -0.5649 -2.3158 0.4082 -1.42469e-006 -1.13993e-006 4.16135e-006 0.9159 -9.2044 0.2193 -1.42469e-006 -1.13993e-006 4.16135e-006 0.0117 -4.1944 -0.0248 -0.0128424 0.0023366 8.16981e-005 0.0071 -2.3249 -0.0142 -1.59028e-015 3.18055e-015 -3.18055e-015 0.6113 -8.7231 -2.0637 -1.42469e-006 -1.13993e-006 4.16135e-006 -0.1927 -3.8059 -0.2383 -0.0160599 0.00299413 0.000858195 -0.1091 -2.1688 -0.1362 -1.59028e-015 6.36111e-015 9.54166e-015 -0.6151 -8.0947 -3.5641 -1.42469e-006 -1.13993e-006 4.16135e-006 -0.4882 -2.341 -0.6462 -0.0126296 0.0031365 0.00283701 -0.3575 -1.7167 -0.4742 0 0 -6.36111e-015 -1.42 -1.8761 1.4223 -1.42469e-006 -1.13993e-006 4.16135e-006 -1.1471 -3.4929 2.6334 1.42469e-006 1.13993e-006 -4.16135e-006 -0.823 -2.3 1.6571 -1.42469e-006 -1.13993e-006 4.16135e-006 -2.2603 21.606 7.4023 -93.637 -71.3611 -137.043 -13.5187 -1.1334 -5.0155 -98.0433 24.901 -22.3172 0.0994 -28.0499 -0.2431 31.566 5.43538 28.1504 -0.0679 -23.3996 -0.1402 -29.1001 14.9622 55.7285 -0.7932 -9.0691 2.5189 2.47851e-032 1.14301e-015 -1.2424e-015 0.8272 -3.3923 0.5977 4.23468e-006 -3.27767e-006 2.20888e-006 0.565 -2.3158 0.4082 -3.18055e-015 1.2921e-015 -9.93923e-017 -0.916 -9.2044 0.2193 2.47851e-032 1.14301e-015 -1.2424e-015 -0.0117 -4.1944 -0.0248 0.0129332 0.00232612 -8.68856e-005 -0.0071 -2.3249 -0.0142 6.36111e-015 4.4975e-015 1.3418e-015 -0.6113 -8.7231 -2.0637 2.47851e-032 1.14301e-015 -1.2424e-015 0.1927 -3.8059 -0.2383 0.0163318 0.00306177 -0.000874841 0.1091 -2.1688 -0.1362 3.18055e-015 1.31695e-015 -4.96962e-016 0.6151 -8.0947 -3.564 2.47851e-032 1.14301e-015 -1.2424e-015 0.4882 -2.341 -0.6462 0.0145871 0.0037002 -0.00326992 0.3574 -1.7166 -0.4742 -2.4742e-032 2.03754e-015 6.95746e-016 1.4199 -1.8761 1.4221 2.47851e-032 1.14301e-015 -1.2424e-015 1.1472 -3.4929 2.6336 4.23468e-006 -3.27767e-006 2.20888e-006 0.8229 -2.3 1.6571 -3.18055e-015 1.2921e-015 -9.93923e-017 -9.412 3.9771 -0.7758 -5.93736 -13.8837 1.48441 -0.7531 -40.938 -1.77636e-015 59.0375 24.2068 -87.0275 0 -40.1986 -7.10543e-015 12.6474 31.2841 16.0834 0 -4.4182 9.239 1.65099e-006 1.2018e-006 -3.0665e-008 9.4119 3.9773 -0.7758 5.12387 14.389 8.96763 0.7532 -40.9383 -1.77636e-015 4.99912 72.2343 -7.34762 -8.88179e-016 -40.1986 7.10543e-015 2.54216 1.51239 3.79516 -1.33227e-015 -4.4182 9.239 4.84874e-006 3.39303e-006 3.85903e-007 
-9.73784 5.3497 8.31203 -90 -7.7844e-007 2.34592e-006 8.88179e-016 8.7983 -4.7612 2.36483 2.47074 -7.32876 0 8.0291 0.4195 5.0322 4.61709 -14.7715 8.88179e-016 9.9351 -2.2114 5.0322 4.6171 -14.7715 4.44089e-016 22.3885 -0.4656 24.2578 -1.82576 0.820017 -0.0001 12.643 3.4389 8.55803 3.45189 0.0392787 2.2603 21.606 7.4023 -4.68563 -12.1841 12.1495 13.5163 -1.1332 -5.0146 20.5032 -35.1116 3.81827 -0.0995 -28.05 -0.2431 -16.3102 2.96474 1.30696 0.0679 -23.3996 -0.1402 0.0056097 -0.00227855 0.739849 0.7932 -9.069 2.5189 -1.59028e-015 -3.18055e-015 -0 -0.8272 -3.3923 0.5977 -3.18055e-015 -3.18055e-015 -3.18055e-015 -0.5649 -2.3158 0.4082 -6.36111e-015 0 -3.18055e-015 0.9159 -9.2044 0.2193 -1.59028e-015 -3.18055e-015 -0 0.0117 -4.1944 -0.0248 -0.01282 0.00231678 8.56713e-005 0.0071 -2.3249 -0.0142 -1.02674e-005 -4.99642e-006 1.94807e-006 0.6113 -8.7231 -2.0637 -1.59028e-015 -3.18055e-015 -0 -0.1927 -3.8059 -0.2383 -0.0160575 0.00298534 0.00085612 -0.1091 -2.1688 -0.1362 1.05765e-006 -2.12982e-006 9.56956e-007 -0.6151 -8.0947 -3.5641 -1.59028e-015 -3.18055e-015 -0 -0.4882 -2.341 -0.6462 -0.0125483 0.00310122 0.00281773 -0.3575 -1.7167 -0.4742 3.18055e-015 3.18055e-015 -3.18055e-015 -1.42 -1.8761 1.4223 -1.59028e-015 -3.18055e-015 -0 -1.1471 -3.4929 2.6334 -3.18055e-015 -3.18055e-015 -3.18055e-015 -0.823 -2.3 1.6571 -6.36111e-015 0 -3.18055e-015 -2.2603 21.606 7.4023 -94.3992 -71.0229 -138.174 -13.5187 -1.1334 -5.0155 -98.0433 24.901 -22.3172 0.0994 -28.0499 -0.2431 31.4574 5.41842 27.9329 -0.0679 -23.3996 -0.1402 -28.8465 15.3209 55.9565 -0.7932 -9.0691 2.5189 -5.07175e-007 7.47757e-006 3.36761e-006 0.8272 -3.3923 0.5977 3.18055e-015 -1.98785e-016 -3.47873e-016 0.565 -2.3158 0.4082 3.18055e-015 1.2424e-015 -8.44835e-016 -0.916 -9.2044 0.2193 -5.07175e-007 7.47757e-006 3.36761e-006 -0.0117 -4.1944 -0.0248 0.0129562 0.00231592 -9.02371e-005 -0.0071 -2.3249 -0.0142 4.2138e-006 -3.34244e-006 2.22437e-006 -0.6113 -8.7231 -2.0637 -5.07175e-007 7.47757e-006 3.36761e-006 0.1927 -3.8059 -0.2383 0.0163257 0.00302035 -0.000879675 0.1091 -2.1688 -0.1362 1.13539e-006 3.71917e-006 1.65744e-006 0.6151 -8.0947 -3.564 -5.07175e-007 7.47757e-006 3.36761e-006 0.4882 -2.341 -0.6462 0.0145924 0.00367333 -0.00326548 0.3574 -1.7166 -0.4742 -2.29747e-032 -1.01877e-015 -1.2921e-015 1.4199 -1.8761 1.4221 -5.07175e-007 7.47757e-006 3.36761e-006 1.1472 -3.4929 2.6336 3.18055e-015 -1.98785e-016 -3.47873e-016 0.8229 -2.3 1.6571 3.18055e-015 1.2424e-015 -8.44835e-016 -9.412 3.9771 -0.7758 -5.96374 -14.0134 1.42017 -0.7531 -40.938 0 59.0328 24.2056 -87.0265 0 -40.1986 -7.10543e-015 12.5722 31.314 16.0091 3.55271e-015 -4.4182 9.239 5.63165e-006 -1.98379e-006 1.24784e-005 9.4119 3.9773 -0.7758 5.12828 14.1349 8.99594 0.7532 -40.9383 -1.77636e-015 5.21605 72.5584 -7.54737 8.88178e-016 -40.1986 -7.10543e-015 2.54125 1.502 3.80107 -8.88178e-016 -4.4182 9.239 1.55689e-005 -3.27351e-006 -9.46468e-007 
-9.73883 5.34961 8.14245 -90 -2.16544e-006 4.90065e-006 0 8.7983 -4.7612 2.35067 2.60172 -7.2656 0 8.0291 0.4195 5.01899 4.88257 -14.6521 -4.44089e-016 9.9351 -2.2114 5.01903 4.88258 -14.6521 -2.22045e-016 22.3885 -0.4656 24.2065 -1.82649 0.818431 -0.0001 12.643 3.4389 8.52949 3.49065 0.0362313 2.2603 21.606 7.4023 -4.23431 -12.6332 12.1373 13.5163 -1.1332 -5.0146 20.2866 -35.2893 3.69534 -0.0995 -28.05 -0.2431 -16.4738 2.99105 1.28048 0.0679 -23.3996 -0.1402 0.00562412 -0.00227052 0.743704 0.7932 -9.069 2.5189 6.36111e-015 0 -0 -0.8272 -3.3923 0.5977 7.82341e-007 -1.31412e-006 1.27726e-006 -0.5649 -2.3158 0.4082 3.18055e-015 9.54166e-015 -0 0.9159 -9.2044 0.2193 6.36111e-015 0 -0 0.0117 -4.1944 -0.0248 -0.0128347 0.00232863 7.67035e-005 0.0071 -2.3249 -0.0142 -7.07442e-006 -6.61894e-006 1.04188e-005 0.6113 -8.7231 -2.0637 6.36111e-015 0 -0 -0.1927 -3.8059 -0.2383 -0.0160334 0.00299464 0.000858103 -0.1091 -2.1688 -0.1362 1.59028e-015 6.36111e-015 -3.18055e-015 -0.6151 -8.0947 -3.5641 6.36111e-015 0 -0 -0.4882 -2.341 -0.6462 -0.0126228 0.00313137 0.00284152 -0.3575 -1.7167 -0.4742 -6.76691e-006 -1.77003e-006 1.93934e-006 -1.42 -1.8761 1.4223 6.36111e-015 0 -0 -1.1471 -3.4929 2.6334 7.82341e-007 -1.31412e-006 1.27726e-006 -0.823 -2.3 1.6571 3.18055e-015 9.54166e-015 -0 -2.2603 21.606 7.4023 -95.1281 -70.6802 -139.271 -13.5187 -1.1334 -5.0155 -98.0433 24.901 -22.3172 0.0994001 -28.0499 -0.2431 31.3476 5.40123 27.7167 -0.0679 -23.3996 -0.1402 -28.5941 15.6805 56.1835 -0.793201 -9.0691 2.5189 -6.36111e-015 -2.48481e-017 1.68967e-015 0.827201 -3.3923 0.5977 -6.36111e-015 -2.36057e-015 -7.95139e-016 0.565 -2.3158 0.4082 -2.62076e-032 -3.77691e-015 -3.97569e-016 -0.916001 -9.20439 0.2193 -6.36111e-015 -2.48481e-017 1.68967e-015 -0.0117 -4.1944 -0.0248 0.0129278 0.00231392 -8.60318e-005 -0.0071 -2.3249 -0.0142 9.54166e-015 2.48481e-016 1.2921e-015 -0.6113 -8.72309 -2.0637 -6.36111e-015 -2.48481e-017 1.68967e-015 0.1927 -3.8059 -0.2383 0.0163346 0.00302889 -0.000865359 0.1091 -2.1688 -0.1362 -5.2273e-007 -9.35333e-006 3.36521e-006 0.6151 -8.0947 -3.564 -6.36111e-015 -2.48481e-017 1.68967e-015 0.4882 -2.341 -0.6462 0.0145936 0.00367467 -0.00327077 0.3574 -1.7166 -0.4742 -3.18055e-015 -2.65874e-015 -3.47873e-016 1.4199 -1.8761 1.4221 -6.36111e-015 -2.48481e-017 1.68967e-015 1.1472 -3.4929 2.6336 -6.36111e-015 -2.36057e-015 -7.95139e-016 0.822901 -2.3 1.6571 -2.62076e-032 -3.77691e-015 -3.97569e-016 -9.412 3.9771 -0.7758 -5.9903 -14.1432 1.35582 -0.7531 -40.938 2.66454e-015 59.0281 24.2045 -87.0257 1.77636e-015 -40.1986 -7.10543e-015 12.497 31.3439 15.9348 3.55271e-015 -4.4182 9.239 1.59028e-015 1.47572e-006 3.18055e-015 9.4119 3.9773 -0.7758 5.13276 13.8804 9.02425 0.7532 -40.9383 0 5.4411 72.8827 -7.75517 1.77636e-015 -40.1986 0 2.54034 1.4916 3.80699 -8.88178e-016 -4.4182 9.239 1.70148e-006 6.7285e-009 -4.4381e-008 
